<?xml version="1.0" encoding="UTF-8" standalone="no"?>
<svg
   xmlns:dc="http://purl.org/dc/elements/1.1/"
   xmlns:cc="http://creativecommons.org/ns#"
   xmlns:rdf="http://www.w3.org/1999/02/22-rdf-syntax-ns#"
   xmlns:svg="http://www.w3.org/2000/svg"
   xmlns="http://www.w3.org/2000/svg"
   xmlns:sodipodi="http://sodipodi.sourceforge.net/DTD/sodipodi-0.dtd"
   xmlns:inkscape="http://www.inkscape.org/namespaces/inkscape"
   viewBox="0 0 48 48"
   version="1.1"
   id="svg5"
   sodipodi:docname="warning.svg"
   inkscape:version="0.92.4 (5da689c313, 2019-01-14)">
  <metadata
     id="metadata11">
    <rdf:RDF>
      <cc:Work
         rdf:about="">
        <dc:format>image/svg+xml</dc:format>
        <dc:type
           rdf:resource="http://purl.org/dc/dcmitype/StillImage" />
      </cc:Work>
    </rdf:RDF>
  </metadata>
  <defs
     id="defs9" />
  <sodipodi:namedview
     pagecolor="#ffffff"
     bordercolor="#666666"
     borderopacity="1"
     objecttolerance="10"
     gridtolerance="10"
     guidetolerance="10"
     inkscape:pageopacity="0"
     inkscape:pageshadow="2"
     inkscape:window-width="1920"
     inkscape:window-height="1027"
     id="namedview7"
     showgrid="false"
     inkscape:zoom="4.9166667"
     inkscape:cx="24"
     inkscape:cy="24"
     inkscape:window-x="1912"
     inkscape:window-y="-8"
     inkscape:window-maximized="1"
     inkscape:current-layer="Ebene_2" />
  <g
     id="Ebene_2"
     data-name="Ebene 2"
     transform="translate(0,-2)">
    <path
       d="M 41.26,36.5 25.73,9.5 a 2,2 0 0 0 -3.46,0 l -15.53,27 a 2,2 0 0 0 1.73,3 h 31.06 a 2,2 0 0 0 1.73,-3 z M 24,37.51 a 2,2 0 1 1 2,-2 2,2 0 0 1 -2,2 z m 2,-11.83 a 10,10 0 0 1 -0.14,1.64 L 25,30.51 a 1,1 0 0 1 -1,1 1.12,1.12 0 0 1 -1,-1 l -0.83,-3 A 10.13,10.13 0 0 1 22,25.68 v -8.17 a 2,2 0 1 1 4,0 z"
       id="path2"
       inkscape:connector-curvature="0" />
  </g>
</svg>
